{
	"patcher" : 	{
		"fileversion" : 1,
		"appversion" : 		{
			"major" : 7,
			"minor" : 2,
			"revision" : 3,
			"architecture" : "x86",
			"modernui" : 1
		}
,
		"rect" : [ 431.0, 79.0, 883.0, 592.0 ],
		"bglocked" : 0,
		"openinpresentation" : 0,
		"default_fontsize" : 12.0,
		"default_fontface" : 0,
		"default_fontname" : "Arial",
		"gridonopen" : 1,
		"gridsize" : [ 15.0, 15.0 ],
		"gridsnaponopen" : 1,
		"objectsnaponopen" : 1,
		"statusbarvisible" : 2,
		"toolbarvisible" : 1,
		"lefttoolbarpinned" : 0,
		"toptoolbarpinned" : 0,
		"righttoolbarpinned" : 0,
		"bottomtoolbarpinned" : 0,
		"toolbars_unpinned_last_save" : 0,
		"tallnewobj" : 0,
		"boxanimatetime" : 200,
		"enablehscroll" : 1,
		"enablevscroll" : 1,
		"devicewidth" : 0.0,
		"description" : "",
		"digest" : "",
		"tags" : "",
		"style" : "",
		"subpatcher_template" : "",
		"boxes" : [ 			{
				"box" : 				{
					"id" : "obj-21",
					"maxclass" : "newobj",
					"numinlets" : 2,
					"numoutlets" : 1,
					"outlettype" : [ "int" ],
					"patching_rect" : [ 637.0, 140.0, 29.5, 22.0 ],
					"style" : "",
					"text" : "+ 1"
				}

			}
, 			{
				"box" : 				{
					"id" : "obj-18",
					"maxclass" : "ezdac~",
					"numinlets" : 2,
					"numoutlets" : 0,
					"patching_rect" : [ 684.0, 291.0, 45.0, 45.0 ],
					"style" : ""
				}

			}
, 			{
				"box" : 				{
					"id" : "obj-17",
					"linecount" : 4,
					"maxclass" : "comment",
					"numinlets" : 1,
					"numoutlets" : 0,
					"patching_rect" : [ 662.0, 70.0, 150.0, 60.0 ],
					"style" : "",
					"text" : "LP\nHP\nBefore\nAfter"
				}

			}
, 			{
				"box" : 				{
					"disabled" : [ 0, 0, 0, 0 ],
					"id" : "obj-14",
					"itemtype" : 0,
					"maxclass" : "radiogroup",
					"numinlets" : 1,
					"numoutlets" : 1,
					"outlettype" : [ "" ],
					"parameter_enable" : 0,
					"patching_rect" : [ 637.0, 67.0, 18.0, 66.0 ],
					"size" : 4,
					"style" : "",
					"value" : 0
				}

			}
, 			{
				"box" : 				{
					"domain" : [ 100.0, 22050.0 ],
					"id" : "obj-13",
					"logfreq" : 1,
					"maxclass" : "spectroscope~",
					"numinlets" : 2,
					"numoutlets" : 1,
					"outlettype" : [ "" ],
					"patching_rect" : [ 487.0, 331.0, 177.0, 110.0 ],
					"style" : ""
				}

			}
, 			{
				"box" : 				{
					"id" : "obj-11",
					"maxclass" : "newobj",
					"numinlets" : 2,
					"numoutlets" : 1,
					"outlettype" : [ "signal" ],
					"patching_rect" : [ 505.0, 292.0, 29.5, 22.0 ],
					"style" : "",
					"text" : "+~"
				}

			}
, 			{
				"box" : 				{
					"id" : "obj-9",
					"maxclass" : "newobj",
					"numinlets" : 5,
					"numoutlets" : 1,
					"outlettype" : [ "signal" ],
					"patching_rect" : [ 637.0, 188.0, 70.0, 22.0 ],
					"style" : "",
					"text" : "selector~ 4"
				}

			}
, 			{
				"box" : 				{
					"id" : "obj-8",
					"maxclass" : "ezdac~",
					"numinlets" : 2,
					"numoutlets" : 0,
					"patching_rect" : [ 897.5, 267.0, 45.0, 45.0 ],
					"style" : ""
				}

			}
, 			{
				"box" : 				{
					"id" : "obj-7",
					"logfreq" : 1,
					"maxclass" : "spectroscope~",
					"numinlets" : 2,
					"numoutlets" : 1,
					"outlettype" : [ "" ],
					"patching_rect" : [ 275.0, 324.0, 177.0, 110.0 ],
					"style" : ""
				}

			}
, 			{
				"box" : 				{
					"domain" : [ 100.0, 22050.0 ],
					"id" : "obj-6",
					"logfreq" : 1,
					"maxclass" : "spectroscope~",
					"numinlets" : 2,
					"numoutlets" : 1,
					"outlettype" : [ "" ],
					"patching_rect" : [ 64.5, 316.0, 177.0, 110.0 ],
					"style" : ""
				}

			}
, 			{
				"box" : 				{
					"id" : "obj-5",
					"maxclass" : "number",
					"maximum" : 20000,
					"minimum" : 50,
					"numinlets" : 1,
					"numoutlets" : 2,
					"outlettype" : [ "", "bang" ],
					"parameter_enable" : 0,
					"patching_rect" : [ 349.0, 125.0, 50.0, 22.0 ],
					"style" : ""
				}

			}
, 			{
				"box" : 				{
					"id" : "obj-47",
					"maxclass" : "newobj",
					"numinlets" : 1,
					"numoutlets" : 1,
					"outlettype" : [ "" ],
					"patching_rect" : [ 380.0, 24.0, 72.0, 22.0 ],
					"style" : "",
					"text" : "loadmess 1"
				}

			}
, 			{
				"box" : 				{
					"id" : "obj-4",
					"maxclass" : "preset",
					"numinlets" : 1,
					"numoutlets" : 4,
					"outlettype" : [ "preset", "int", "preset", "int" ],
					"patching_rect" : [ 361.0, 58.0, 100.0, 40.0 ],
					"preset_data" : [ 						{
							"number" : 1,
							"data" : [ 5, "obj-3", "toggle", "int", 0, 5, "obj-30", "toggle", "int", 1, 5, "obj-12", "umenu", "int", 4, 5, "obj-5", "number", "int", 2000 ]
						}
 ],
					"style" : ""
				}

			}
, 			{
				"box" : 				{
					"id" : "obj-31",
					"maxclass" : "message",
					"numinlets" : 2,
					"numoutlets" : 1,
					"outlettype" : [ "" ],
					"patching_rect" : [ 231.0, 101.0, 43.0, 22.0 ],
					"style" : "",
					"text" : "loop 1"
				}

			}
, 			{
				"box" : 				{
					"id" : "obj-29",
					"maxclass" : "newobj",
					"numinlets" : 1,
					"numoutlets" : 1,
					"outlettype" : [ "bang" ],
					"patching_rect" : [ 231.0, 67.0, 60.0, 22.0 ],
					"style" : "",
					"text" : "loadbang"
				}

			}
, 			{
				"box" : 				{
					"id" : "obj-12",
					"items" : [ "open", ",", "open", "clean_pop_strum_100bpm", ",", "open", "clean_guitar_melody", ",", "open", "sin500Hz.wav", ",", "open", "whitenoise.wav" ],
					"maxclass" : "umenu",
					"numinlets" : 1,
					"numoutlets" : 3,
					"outlettype" : [ "int", "", "" ],
					"parameter_enable" : 0,
					"patching_rect" : [ 111.5, 34.0, 206.0, 22.0 ],
					"presentation" : 1,
					"presentation_rect" : [ 60.0, 81.875, 392.0, 22.0 ],
					"style" : ""
				}

			}
, 			{
				"box" : 				{
					"id" : "obj-23",
					"maxclass" : "button",
					"numinlets" : 1,
					"numoutlets" : 1,
					"outlettype" : [ "bang" ],
					"patching_rect" : [ 167.5, 67.0, 24.0, 24.0 ],
					"style" : ""
				}

			}
, 			{
				"box" : 				{
					"id" : "obj-27",
					"maxclass" : "button",
					"numinlets" : 1,
					"numoutlets" : 1,
					"outlettype" : [ "bang" ],
					"patching_rect" : [ 129.5, 67.0, 24.0, 24.0 ],
					"presentation" : 1,
					"presentation_rect" : [ 16.5, 66.875, 24.0, 24.0 ],
					"style" : ""
				}

			}
, 			{
				"box" : 				{
					"id" : "obj-30",
					"maxclass" : "toggle",
					"numinlets" : 1,
					"numoutlets" : 1,
					"outlettype" : [ "int" ],
					"parameter_enable" : 0,
					"patching_rect" : [ 148.5, 111.0, 24.0, 24.0 ],
					"style" : ""
				}

			}
, 			{
				"box" : 				{
					"id" : "obj-32",
					"maxclass" : "newobj",
					"numinlets" : 2,
					"numoutlets" : 2,
					"outlettype" : [ "signal", "bang" ],
					"patching_rect" : [ 200.0, 156.0, 49.0, 22.0 ],
					"saved_object_attributes" : 					{
						"basictuning" : 440,
						"followglobaltempo" : 0,
						"formantcorrection" : 0,
						"mode" : "basic",
						"originallength" : [ 57848.339844, "ticks" ],
						"originaltempo" : 120.000008,
						"pitchcorrection" : 0,
						"quality" : "basic",
						"timestretch" : [ 0 ]
					}
,
					"style" : "",
					"text" : "sfplay~"
				}

			}
, 			{
				"box" : 				{
					"id" : "obj-3",
					"maxclass" : "toggle",
					"numinlets" : 1,
					"numoutlets" : 1,
					"outlettype" : [ "int" ],
					"parameter_enable" : 0,
					"patching_rect" : [ 428.0, 156.0, 24.0, 24.0 ],
					"style" : ""
				}

			}
, 			{
				"box" : 				{
					"id" : "obj-1",
					"maxclass" : "newobj",
					"numinlets" : 4,
					"numoutlets" : 2,
					"outlettype" : [ "signal", "signal" ],
					"patching_rect" : [ 295.0, 210.0, 104.0, 22.0 ],
					"style" : "",
					"text" : "DAFXCrossover~"
				}

			}
 ],
		"lines" : [ 			{
				"patchline" : 				{
					"destination" : [ "obj-11", 1 ],
					"disabled" : 0,
					"hidden" : 0,
					"source" : [ "obj-1", 1 ]
				}

			}
, 			{
				"patchline" : 				{
					"destination" : [ "obj-11", 0 ],
					"disabled" : 0,
					"hidden" : 0,
					"source" : [ "obj-1", 0 ]
				}

			}
, 			{
				"patchline" : 				{
					"destination" : [ "obj-6", 0 ],
					"disabled" : 0,
					"hidden" : 0,
					"source" : [ "obj-1", 0 ]
				}

			}
, 			{
				"patchline" : 				{
					"destination" : [ "obj-7", 0 ],
					"disabled" : 0,
					"hidden" : 0,
					"source" : [ "obj-1", 1 ]
				}

			}
, 			{
				"patchline" : 				{
					"destination" : [ "obj-9", 2 ],
					"disabled" : 0,
					"hidden" : 0,
					"source" : [ "obj-1", 1 ]
				}

			}
, 			{
				"patchline" : 				{
					"destination" : [ "obj-9", 1 ],
					"disabled" : 0,
					"hidden" : 0,
					"source" : [ "obj-1", 0 ]
				}

			}
, 			{
				"patchline" : 				{
					"destination" : [ "obj-13", 0 ],
					"disabled" : 0,
					"hidden" : 0,
					"source" : [ "obj-11", 0 ]
				}

			}
, 			{
				"patchline" : 				{
					"destination" : [ "obj-9", 4 ],
					"disabled" : 0,
					"hidden" : 0,
					"source" : [ "obj-11", 0 ]
				}

			}
, 			{
				"patchline" : 				{
					"destination" : [ "obj-32", 0 ],
					"disabled" : 0,
					"hidden" : 0,
					"source" : [ "obj-12", 1 ]
				}

			}
, 			{
				"patchline" : 				{
					"destination" : [ "obj-21", 0 ],
					"disabled" : 0,
					"hidden" : 0,
					"source" : [ "obj-14", 0 ]
				}

			}
, 			{
				"patchline" : 				{
					"destination" : [ "obj-9", 0 ],
					"disabled" : 0,
					"hidden" : 0,
					"source" : [ "obj-21", 0 ]
				}

			}
, 			{
				"patchline" : 				{
					"destination" : [ "obj-30", 0 ],
					"disabled" : 0,
					"hidden" : 0,
					"source" : [ "obj-23", 0 ]
				}

			}
, 			{
				"patchline" : 				{
					"destination" : [ "obj-23", 0 ],
					"disabled" : 0,
					"hidden" : 0,
					"source" : [ "obj-27", 0 ]
				}

			}
, 			{
				"patchline" : 				{
					"destination" : [ "obj-30", 0 ],
					"disabled" : 0,
					"hidden" : 0,
					"source" : [ "obj-27", 0 ]
				}

			}
, 			{
				"patchline" : 				{
					"destination" : [ "obj-31", 0 ],
					"disabled" : 0,
					"hidden" : 0,
					"source" : [ "obj-29", 0 ]
				}

			}
, 			{
				"patchline" : 				{
					"destination" : [ "obj-1", 3 ],
					"disabled" : 0,
					"hidden" : 0,
					"source" : [ "obj-3", 0 ]
				}

			}
, 			{
				"patchline" : 				{
					"destination" : [ "obj-32", 0 ],
					"disabled" : 0,
					"hidden" : 0,
					"source" : [ "obj-30", 0 ]
				}

			}
, 			{
				"patchline" : 				{
					"destination" : [ "obj-32", 0 ],
					"disabled" : 0,
					"hidden" : 0,
					"source" : [ "obj-31", 0 ]
				}

			}
, 			{
				"patchline" : 				{
					"destination" : [ "obj-1", 0 ],
					"disabled" : 0,
					"hidden" : 0,
					"source" : [ "obj-32", 0 ]
				}

			}
, 			{
				"patchline" : 				{
					"destination" : [ "obj-9", 3 ],
					"disabled" : 0,
					"hidden" : 0,
					"source" : [ "obj-32", 0 ]
				}

			}
, 			{
				"patchline" : 				{
					"destination" : [ "obj-4", 0 ],
					"disabled" : 0,
					"hidden" : 0,
					"source" : [ "obj-47", 0 ]
				}

			}
, 			{
				"patchline" : 				{
					"destination" : [ "obj-1", 1 ],
					"disabled" : 0,
					"hidden" : 0,
					"source" : [ "obj-5", 0 ]
				}

			}
, 			{
				"patchline" : 				{
					"destination" : [ "obj-18", 1 ],
					"disabled" : 0,
					"hidden" : 0,
					"source" : [ "obj-9", 0 ]
				}

			}
, 			{
				"patchline" : 				{
					"destination" : [ "obj-18", 0 ],
					"disabled" : 0,
					"hidden" : 0,
					"source" : [ "obj-9", 0 ]
				}

			}
 ],
		"dependency_cache" : [ 			{
				"name" : "DAFXCrossover~.mxo",
				"type" : "iLaX"
			}
 ],
		"autosave" : 0,
		"styles" : [ 			{
				"name" : "AudioStatus_Menu",
				"default" : 				{
					"bgfillcolor" : 					{
						"type" : "color",
						"color" : [ 0.294118, 0.313726, 0.337255, 1 ],
						"color1" : [ 0.454902, 0.462745, 0.482353, 0.0 ],
						"color2" : [ 0.290196, 0.309804, 0.301961, 1.0 ],
						"angle" : 270.0,
						"proportion" : 0.39,
						"autogradient" : 0
					}

				}
,
				"parentstyle" : "",
				"multi" : 0
			}
, 			{
				"name" : "helpfile_label-1",
				"default" : 				{
					"fontname" : [ "Arial" ],
					"textcolor" : [ 0.501961, 0.501961, 0.501961, 1.0 ],
					"fontsize" : [ 13.0 ]
				}
,
				"parentstyle" : "",
				"multi" : 0
			}
, 			{
				"name" : "newobjBlue-1",
				"default" : 				{
					"accentcolor" : [ 0.317647, 0.654902, 0.976471, 1.0 ]
				}
,
				"parentstyle" : "",
				"multi" : 0
			}
, 			{
				"name" : "newobjGreen-1",
				"default" : 				{
					"accentcolor" : [ 0.0, 0.533333, 0.168627, 1.0 ]
				}
,
				"parentstyle" : "",
				"multi" : 0
			}
, 			{
				"name" : "newobjYellow-1",
				"default" : 				{
					"accentcolor" : [ 0.82517, 0.78181, 0.059545, 1.0 ],
					"fontsize" : [ 12.059008 ]
				}
,
				"parentstyle" : "",
				"multi" : 0
			}
, 			{
				"name" : "numberGold-1",
				"default" : 				{
					"accentcolor" : [ 0.764706, 0.592157, 0.101961, 1.0 ]
				}
,
				"parentstyle" : "",
				"multi" : 0
			}
 ]
	}

}
